<?xml version="1.0" encoding="UTF-8"?>
<svg id="bubbles-1.5" width="80px" height="16px" viewBox="0 0 80 16" version="1.1" xmlns="http://www.w3.org/2000/svg">
    <title>bubbles-1.5</title>
    <g transform="translate(64.000000, 0.000000)">
        <path d="M8,16 C3.581722,16 0,12.418278 0,8 C0,3.581722 3.581722,0 8,0 C12.418278,0 16,3.581722 16,8 C16,12.418278 12.418278,16 8,16 Z M8,14.4 C11.5346224,14.4 14.4,11.5346224 14.4,8 C14.4,4.4653776 11.5346224,1.6 8,1.6 C4.4653776,1.6 1.6,4.4653776 1.6,8 C1.6,11.5346224 4.4653776,14.4 8,14.4 Z" />
    </g>
    <g transform="translate(48.000000, 0.000000)">
        <path d="M8,16 C3.581722,16 0,12.418278 0,8 C0,3.581722 3.581722,0 8,0 C12.418278,0 16,3.581722 16,8 C16,12.418278 12.418278,16 8,16 Z M8,14.4 C11.5346224,14.4 14.4,11.5346224 14.4,8 C14.4,4.4653776 11.5346224,1.6 8,1.6 C4.4653776,1.6 1.6,4.4653776 1.6,8 C1.6,11.5346224 4.4653776,14.4 8,14.4 Z" />
    </g>
    <g transform="translate(32.000000, 0.000000)">
        <path d="M8,16 C3.581722,16 0,12.418278 0,8 C0,3.581722 3.581722,0 8,0 C12.418278,0 16,3.581722 16,8 C16,12.418278 12.418278,16 8,16 Z M8,14.4 C11.5346224,14.4 14.4,11.5346224 14.4,8 C14.4,4.4653776 11.5346224,1.6 8,1.6 C4.4653776,1.6 1.6,4.4653776 1.6,8 C1.6,11.5346224 4.4653776,14.4 8,14.4 Z" />
    </g>
    <g transform="translate(16.000000, 0.000000)">
        <path d="M8,16 C3.581722,16 0,12.418278 0,8 C0,3.581722 3.581722,0 8,0 C12.418278,0 16,3.581722 16,8 C16,12.418278 12.418278,16 8,16 Z M8,14.4 C11.5346224,14.4 14.4,11.5346224 14.4,8 C14.4,4.4653776 11.5346224,1.6 8,1.6 C4.4653776,1.6 1.6,4.4653776 1.6,8 C1.6,11.5346224 4.4653776,14.4 8,14.4 Z" />
        <path d="M8,4 L8,12 C5.790861,12 4,10.209139 4,8 C4,5.790861 5.790861,4 8,4 Z" />
    </g>
    <g>
        <path d="M8,16 C3.581722,16 0,12.418278 0,8 C0,3.581722 3.581722,0 8,0 C12.418278,0 16,3.581722 16,8 C16,12.418278 12.418278,16 8,16 Z M8,14.4 C11.5346224,14.4 14.4,11.5346224 14.4,8 C14.4,4.4653776 11.5346224,1.6 8,1.6 C4.4653776,1.6 1.6,4.4653776 1.6,8 C1.6,11.5346224 4.4653776,14.4 8,14.4 Z"/>
        <path d="M8,12 C10.209139,12 12,10.209139 12,8 C12,5.790861 10.209139,4 8,4 C5.790861,4 4,5.790861 4,8 C4,10.209139 5.790861,12 8,12 Z"/>
    </g>
</svg>